<mxfile host="65bd71144e">
    <diagram id="ZlTVfNt9bWCOmSL6CBc7" name="Page-1">
        <mxGraphModel dx="975" dy="728" grid="1" gridSize="10" guides="1" tooltips="1" connect="1" arrows="1" fold="1" page="1" pageScale="1" pageWidth="850" pageHeight="1100" math="0" shadow="0">
            <root>
                <mxCell id="0"/>
                <mxCell id="1" parent="0"/>
                <mxCell id="2" value="id" style="rounded=0;whiteSpace=wrap;html=1;fontFamily=Lucida Console;fillColor=none;strokeColor=none;" parent="1" vertex="1">
                    <mxGeometry y="40" width="40" height="40" as="geometry"/>
                </mxCell>
                <mxCell id="3" value="uuid" style="rounded=0;whiteSpace=wrap;html=1;fontFamily=Lucida Console;fillColor=none;strokeColor=none;" parent="1" vertex="1">
                    <mxGeometry x="40" y="40" width="160" height="40" as="geometry"/>
                </mxCell>
                <mxCell id="4" value="translation_x" style="rounded=0;whiteSpace=wrap;html=1;fontFamily=Lucida Console;fillColor=none;strokeColor=none;" parent="1" vertex="1">
                    <mxGeometry x="200" y="40" width="100" height="40" as="geometry"/>
                </mxCell>
                <mxCell id="8" value="1fbf3e5c-9092-4ce2-&lt;br&gt;a942-99b84084d806" style="rounded=0;whiteSpace=wrap;html=1;fontFamily=Lucida Console;fillColor=none;strokeColor=none;" parent="1" vertex="1">
                    <mxGeometry x="40" y="80" width="160" height="40" as="geometry"/>
                </mxCell>
                <mxCell id="10" value="1" style="rounded=0;whiteSpace=wrap;html=1;fontFamily=Lucida Console;fillColor=none;strokeColor=none;" parent="1" vertex="1">
                    <mxGeometry y="80" width="40" height="40" as="geometry"/>
                </mxCell>
                <mxCell id="11" value="2" style="rounded=0;whiteSpace=wrap;html=1;fontFamily=Lucida Console;fillColor=none;strokeColor=none;" parent="1" vertex="1">
                    <mxGeometry y="120" width="40" height="40" as="geometry"/>
                </mxCell>
                <mxCell id="12" value="3ea5d12a-4a06-42c0-&lt;br&gt;9845-947bfb190010" style="rounded=0;whiteSpace=wrap;html=1;fontFamily=Lucida Console;fillColor=none;strokeColor=none;" parent="1" vertex="1">
                    <mxGeometry x="40" y="120" width="160" height="40" as="geometry"/>
                </mxCell>
                <mxCell id="31" value="" style="endArrow=none;dashed=1;html=1;fontFamily=Lucida Console;" parent="1" edge="1">
                    <mxGeometry width="50" height="50" relative="1" as="geometry">
                        <mxPoint y="120" as="sourcePoint"/>
                        <mxPoint x="800" y="120" as="targetPoint"/>
                    </mxGeometry>
                </mxCell>
                <mxCell id="34" value="" style="endArrow=none;html=1;fontFamily=Lucida Console;entryX=1;entryY=1;entryDx=0;entryDy=0;" parent="1" target="43" edge="1">
                    <mxGeometry width="50" height="50" relative="1" as="geometry">
                        <mxPoint y="80" as="sourcePoint"/>
                        <mxPoint x="240" y="81" as="targetPoint"/>
                    </mxGeometry>
                </mxCell>
                <mxCell id="36" value="main_transform" style="rounded=0;whiteSpace=wrap;html=1;fontFamily=Lucida Console;fillColor=none;strokeColor=none;align=center;fontStyle=1" parent="1" vertex="1">
                    <mxGeometry width="800" height="40" as="geometry"/>
                </mxCell>
                <mxCell id="23" value="4.45" style="rounded=0;whiteSpace=wrap;html=1;fontFamily=Lucida Console;fillColor=none;strokeColor=none;" parent="1" vertex="1">
                    <mxGeometry x="200" y="80" width="100" height="40" as="geometry"/>
                </mxCell>
                <mxCell id="37" value="translation_y" style="rounded=0;whiteSpace=wrap;html=1;fontFamily=Lucida Console;fillColor=none;strokeColor=none;" parent="1" vertex="1">
                    <mxGeometry x="300" y="40" width="100" height="40" as="geometry"/>
                </mxCell>
                <mxCell id="38" value="3.12" style="rounded=0;whiteSpace=wrap;html=1;fontFamily=Lucida Console;fillColor=none;strokeColor=none;" parent="1" vertex="1">
                    <mxGeometry x="300" y="80" width="100" height="40" as="geometry"/>
                </mxCell>
                <mxCell id="40" value="translation_z" style="rounded=0;whiteSpace=wrap;html=1;fontFamily=Lucida Console;fillColor=none;strokeColor=none;" vertex="1" parent="1">
                    <mxGeometry x="400" y="40" width="100" height="40" as="geometry"/>
                </mxCell>
                <mxCell id="41" value="rotation_x" style="rounded=0;whiteSpace=wrap;html=1;fontFamily=Lucida Console;fillColor=none;strokeColor=none;" vertex="1" parent="1">
                    <mxGeometry x="500" y="40" width="100" height="40" as="geometry"/>
                </mxCell>
                <mxCell id="42" value="rotation_y" style="rounded=0;whiteSpace=wrap;html=1;fontFamily=Lucida Console;fillColor=none;strokeColor=none;" vertex="1" parent="1">
                    <mxGeometry x="600" y="40" width="100" height="40" as="geometry"/>
                </mxCell>
                <mxCell id="43" value="rotation_z" style="rounded=0;whiteSpace=wrap;html=1;fontFamily=Lucida Console;fillColor=none;strokeColor=none;" vertex="1" parent="1">
                    <mxGeometry x="700" y="40" width="100" height="40" as="geometry"/>
                </mxCell>
                <mxCell id="44" value="0.0" style="rounded=0;whiteSpace=wrap;html=1;fontFamily=Lucida Console;fillColor=none;strokeColor=none;" vertex="1" parent="1">
                    <mxGeometry x="400" y="80" width="100" height="40" as="geometry"/>
                </mxCell>
                <mxCell id="45" value="45" style="rounded=0;whiteSpace=wrap;html=1;fontFamily=Lucida Console;fillColor=none;strokeColor=none;" vertex="1" parent="1">
                    <mxGeometry x="500" y="80" width="100" height="40" as="geometry"/>
                </mxCell>
                <mxCell id="46" value="0" style="rounded=0;whiteSpace=wrap;html=1;fontFamily=Lucida Console;fillColor=none;strokeColor=none;" vertex="1" parent="1">
                    <mxGeometry x="600" y="80" width="100" height="40" as="geometry"/>
                </mxCell>
                <mxCell id="47" value="0" style="rounded=0;whiteSpace=wrap;html=1;fontFamily=Lucida Console;fillColor=none;strokeColor=none;" vertex="1" parent="1">
                    <mxGeometry x="700" y="80" width="100" height="40" as="geometry"/>
                </mxCell>
                <mxCell id="48" value="0.0" style="rounded=0;whiteSpace=wrap;html=1;fontFamily=Lucida Console;fillColor=none;strokeColor=none;" vertex="1" parent="1">
                    <mxGeometry x="200" y="120" width="100" height="40" as="geometry"/>
                </mxCell>
                <mxCell id="49" value="4.0" style="rounded=0;whiteSpace=wrap;html=1;fontFamily=Lucida Console;fillColor=none;strokeColor=none;" vertex="1" parent="1">
                    <mxGeometry x="300" y="120" width="100" height="40" as="geometry"/>
                </mxCell>
                <mxCell id="50" value="2.39" style="rounded=0;whiteSpace=wrap;html=1;fontFamily=Lucida Console;fillColor=none;strokeColor=none;" vertex="1" parent="1">
                    <mxGeometry x="400" y="120" width="100" height="40" as="geometry"/>
                </mxCell>
                <mxCell id="51" value="0" style="rounded=0;whiteSpace=wrap;html=1;fontFamily=Lucida Console;fillColor=none;strokeColor=none;" vertex="1" parent="1">
                    <mxGeometry x="500" y="120" width="100" height="40" as="geometry"/>
                </mxCell>
                <mxCell id="52" value="90" style="rounded=0;whiteSpace=wrap;html=1;fontFamily=Lucida Console;fillColor=none;strokeColor=none;" vertex="1" parent="1">
                    <mxGeometry x="600" y="120" width="100" height="40" as="geometry"/>
                </mxCell>
                <mxCell id="53" value="90" style="rounded=0;whiteSpace=wrap;html=1;fontFamily=Lucida Console;fillColor=none;strokeColor=none;" vertex="1" parent="1">
                    <mxGeometry x="700" y="120" width="100" height="40" as="geometry"/>
                </mxCell>
            </root>
        </mxGraphModel>
    </diagram>
</mxfile>